<?xml version="1.0" encoding="utf-8"?>
<svg viewBox="0 0 236.891 299.625" xmlns="http://www.w3.org/2000/svg">
  <g transform="matrix(0.10000000149011612, 0, 0, -0.10000000149011612, -190.0751190185547, 354.1853942871094)" fill="#000000" stroke="none">
    <path d="M3031 3407 c-58 -77 -94 -161 -99 -232 -4 -56 -2 -62 19 -72 13 -6 45 -29 71 -52 25 -22 49 -41 53 -41 4 0 25 15 46 34 22 18 60 44 84 57 39 21 45 28 45 56 0 44 -32 141 -63 190 -37 58 -87 113 -103 113 -7 0 -31 -24 -53 -53z"/>
    <path d="M2796 3218 c-4 -23 -3 -44 1 -48 9 -8 75 -31 78 -28 2 2 6 22 10 45 6 39 5 43 -24 57 -47 25 -58 21 -65 -26z"/>
    <path d="M3313 3248 c-17 -8 -23 -20 -23 -42 0 -48 12 -60 54 -52 31 6 36 11 36 34 0 68 -18 84 -67 60z"/>
    <path d="M2714 3079 c12 -62 64 -159 115 -212 47 -50 136 -106 148 -94 14 14 63 182 58 198 -10 30 -85 87 -144 109 -30 12 -84 24 -119 27 l-65 6 7 -34z"/>
    <path d="M3360 3100 c-123 -12 -206 -63 -264 -163 -31 -52 -72 -184 -62 -195 14 -13 125 -2 181 19 68 25 152 103 187 174 49 97 67 179 40 174 -4 -1 -41 -5 -82 -9z"/>
    <path d="M3419 2883 c-25 -38 -66 -84 -91 -103 -26 -18 -44 -38 -41 -43 7 -11 96 -1 177 19 73 19 176 65 194 87 11 13 7 19 -30 41 -42 24 -141 66 -157 66 -4 0 -28 -30 -52 -67z"/>
    <path d="M2648 2921 c-51 -20 -108 -58 -108 -71 0 -14 138 -77 205 -93 86 -22 152 -29 159 -19 3 5 -18 24 -46 42 -29 19 -70 60 -97 97 -25 34 -50 63 -56 63 -5 -1 -31 -9 -57 -19z"/>
    <path d="M3050 2406 c-134 -30 -151 -44 -77 -68 77 -24 77 -24 77 -481 l0 -398 53 -24 c74 -35 149 -48 242 -43 146 9 247 76 308 206 30 62 32 75 32 172 0 98 -2 109 -30 159 -48 88 -139 141 -240 141 -20 0 -70 -12 -111 -26 -42 -14 -82 -23 -91 -20 -14 6 -15 28 -10 174 4 92 9 182 13 200 6 32 6 32 -32 31 -22 -1 -82 -11 -134 -23z m377 -446 c76 -46 117 -145 117 -276 -1 -82 -30 -154 -76 -187 -62 -46 -191 -27 -243 34 -25 30 -25 33 -25 198 0 186 3 196 68 231 49 25 118 25 159 0z"/>
    <path d="M2127 2365 c-50 -48 -49 -77 3 -127 23 -21 49 -38 60 -38 11 0 37 17 60 38 52 50 53 82 4 128 -47 45 -80 45 -127 -1z"/>
    <path d="M2579 2056 c-142 -38 -236 -155 -247 -307 -10 -139 53 -260 169 -324 50 -28 62 -30 154 -30 95 0 103 2 163 34 118 64 176 162 177 296 0 104 -23 169 -82 235 -51 56 -84 77 -158 96 -61 17 -115 17 -176 0z m114 -81 c48 -20 112 -96 134 -158 25 -72 25 -229 0 -275 -25 -45 -72 -72 -127 -72 -125 1 -220 138 -220 320 0 61 5 86 23 120 38 72 112 98 190 65z"/>
    <path d="M3858 2056 c-124 -33 -190 -154 -139 -254 27 -53 49 -70 189 -142 132 -68 169 -101 157 -140 -9 -28 -61 -50 -119 -50 -33 0 -66 11 -125 42 -74 38 -83 41 -97 26 -8 -8 -18 -34 -21 -57 l-6 -41 49 -22 c60 -26 184 -36 259 -19 111 25 184 114 170 206 -10 68 -59 113 -215 198 -106 58 -137 79 -145 101 -11 33 0 55 40 75 38 18 112 1 178 -41 57 -37 74 -32 96 27 14 37 14 39 -11 60 -16 14 -51 27 -91 34 -79 14 -109 13 -169 -3z"/>
    <path d="M2150 2036 c-135 -31 -148 -43 -83 -73 63 -30 64 -34 60 -373 -4 -339 -8 -365 -64 -416 -36 -33 -37 -54 -2 -54 49 0 139 79 181 160 22 43 23 56 30 365 3 176 10 341 13 368 7 45 7 47 -16 46 -13 0 -67 -11 -119 -23z"/>
    <path d="M1960 709 c0 -119 0 -120 23 -117 22 3 24 7 26 65 1 29 4 32 39 35 25 2 37 8 37 18 0 10 -12 16 -37 18 -35 3 -38 6 -38 33 0 28 2 29 45 29 38 0 45 3 45 20 0 18 -7 20 -70 20 l-70 0 0 -121z"/>
    <path d="M2360 711 l0 -121 25 0 26 0 -3 118 c-3 113 -4 117 -25 120 -23 3 -23 2 -23 -117z"/>
    <path d="M2690 710 l0 -120 25 0 c24 0 25 2 25 75 0 41 3 75 8 75 4 0 28 -34 55 -76 42 -67 50 -75 75 -72 l27 3 0 115 c0 112 -1 115 -22 118 -22 3 -23 0 -23 -72 0 -42 -4 -76 -9 -76 -5 0 -31 34 -56 75 -41 65 -51 75 -76 75 l-29 0 0 -120z"/>
    <path d="M3190 710 l0 -120 65 0 c57 0 69 3 96 28 60 54 44 175 -27 202 -14 6 -50 10 -80 10 l-54 0 0 -120z m130 54 c8 -8 15 -32 15 -55 0 -46 -30 -79 -71 -79 -23 0 -24 3 -24 73 0 41 3 77 7 81 10 10 55 -2 73 -20z"/>
    <path d="M3660 710 l0 -120 65 0 c58 0 65 2 65 20 0 17 -7 20 -40 20 -38 0 -40 2 -40 30 0 28 3 30 35 30 28 0 35 4 35 20 0 16 -7 20 -35 20 -32 0 -35 2 -35 30 0 28 2 30 39 30 24 0 41 5 44 14 9 22 -2 26 -70 26 l-63 0 0 -120z"/>
    <path d="M4070 710 c0 -112 1 -120 19 -120 17 0 20 8 23 47 2 25 8 48 13 50 6 2 24 -19 40 -47 22 -37 35 -50 52 -50 29 0 29 7 -2 52 -30 45 -31 50 -5 73 29 26 26 69 -6 94 -20 15 -41 21 -80 21 l-54 0 0 -120z m105 50 c0 -20 -6 -26 -26 -28 -28 -3 -43 16 -32 44 3 9 15 14 32 12 20 -2 26 -8 26 -28z"/>
  </g>
</svg>